<?xml version="1.0" encoding="utf-8"?>
<!-- Generator: Adobe Illustrator 21.0.0, SVG Export Plug-In . SVG Version: 6.00 Build 0)  -->
<svg version="1.1" id="Layer_1" xmlns="http://www.w3.org/2000/svg" xmlns:xlink="http://www.w3.org/1999/xlink" x="0px" y="0px"
	 viewBox="0 0 600 600" style="fill:rebeccapurple;enable-background:new 0 0 600 600;" xml:space="preserve">
<g>
	<path d="M300,528.4c-0.7-0.5-1.3-1-1.9-1.5c-21.2-17.5-41.1-36.3-61.2-55c-27.7-25.7-55.4-51.3-82.9-77.2
		c-23.3-22-43.2-46.7-58.8-74.8c-13.3-23.8-22.9-48.9-28.3-75.6c-5.9-29.1-4.4-57.8,6.6-85.6c12.5-31.6,34.3-54.9,64.3-70.7
		c12.2-6.4,24.9-11.3,38.4-14.1c25.4-5.3,49.8-2.4,73.1,9.1c9,4.4,17.6,9.7,26.3,14.8c7.5,4.4,14.7,9,22.1,13.5
		c0.8,0.5,1.7,1,2.6,1.5c0.9-0.5,1.8-1,2.7-1.5c12.7-7.4,25.4-14.9,38.2-22.2c10.4-5.9,21.3-10.6,32.9-13.7
		c22.2-5.9,44.2-5.1,65.9,2.3c27.8,9.6,51.2,25.6,69.2,49.1c13.7,17.8,22,37.9,25.7,60c2.3,13.6,2.5,27.2,1.2,40.9
		c-1.5,14.9-5.1,29.4-9.6,43.7c-11,34.6-28.7,65.5-51.8,93.3c-10.9,13.1-22.8,25.1-35.3,36.6c-37.4,34.4-74.8,68.7-112.3,103
		c-8.3,7.6-16.7,14.9-25,22.4C301.2,527.5,300.6,527.9,300,528.4z M288.6,122.3c-0.8-0.7-1.4-1.3-2.1-1.8
		c-12.4-10.5-26.4-18.5-41.2-25.2c-23.3-10.7-47.5-12.8-72.4-7.3c-28.5,6.3-51.7,21-69.6,44.2c-16.6,21.5-25.8,45.6-27.1,72.7
		c-0.6,12.4,0.5,24.8,2.9,37c7.5,38.6,23.6,73.2,48,103.9c14.6,18.5,30.9,35.4,48,51.6c38.6,36.8,78.3,72.5,117.6,108.6
		c2.7,2.5,5.6,4.7,8.5,7.1c0.8-0.7,1.5-1.3,2.1-1.8c8.7-8.1,17.5-16.2,26.2-24.4c34.1-31.8,68.2-63.6,102.3-95.5
		c9.5-8.9,18.9-18,27.6-27.7c22.1-25,39.4-52.9,51-84.3c6.6-17.9,11.5-36.3,13-55.4c1.7-21.7-1.3-42.8-9.7-62.9
		c-5-12-11.2-23.4-20-33.1c-16.5-18.5-36.9-30.9-60.5-38c-15-4.5-30.4-6-46-4.2c-14.4,1.6-27.9,6.3-40.3,13.8
		c-33.7,20.7-64.6,44.9-92.2,73.2c-0.7,0.7-1.3,1.4-2,2.1c4,4.3,7.9,8.4,11.5,12.3c3.6-0.6,5.7-2.8,7.9-4.9
		c14-13.6,28.4-26.8,43.8-38.9c16.1-12.7,33.3-23.8,52.1-32.3c8.8-4,17.7-6.6,27.4-7c14.5-0.6,28.6,1.1,42.1,6.3
		c15.9,6.1,29,16,40.3,28.6c11.8,13.2,20.1,28.2,24,45.5c3.6,15.9,3.5,31.9,1,47.9c-3.5,22.1-10.4,43.1-20.4,63.2
		c-11.8,23.7-27.1,44.9-45.4,63.9c-10.1,10.6-20.6,20.8-31.3,30.8c-31.1,28.9-62.3,57.7-93.6,86.5c-3.5,3.2-7.5,5.9-11.4,9
		c-3.5-2.8-7-5.2-10.1-8c-8.4-7.5-16.7-15.2-25-22.9c-29.6-27.4-59.2-54.8-88.6-82.3c-17.6-16.4-33.2-34.6-46.1-55
		c-18-28.4-30.1-59-34.1-92.6c-1.3-11.1-1.2-22.2,0.8-33.2c5.5-29.6,20.5-53.1,45.2-70.3c14.7-10.2,31-16.2,48.9-17.5
		c17-1.3,33.1,2,48.2,10.1c9.6,5.1,19.1,10.3,28.7,15.5c1.7,0.9,3.4,1.7,5.2,2.4c2.3,0.9,4.6,0.5,6.6-1
		C283.3,128.5,285.8,125.4,288.6,122.3z M231,330.6c-1.6-1.9-3.1-3.7-4.5-5.5c-3.2-4.2-7.4-5.7-12.5-5.1c-0.5,0.1-1,0.1-1.4,0.1
		c-4.7,0.3-9.4,0.5-14.1-0.3c-17.3-2.9-24.4-18.5-23.7-29.8c0.5-8.3,3.9-15.2,9.6-21.2c3.5-3.7,7.2-7.3,10.8-10.9
		c11.1-10.9,22.3-21.8,33.4-32.8c1.8-1.7,3.4-3.5,5.3-5.4c-4.7-4.4-9.2-8.6-13.8-12.9c-0.5,0.5-0.9,0.8-1.2,1.1
		c-5.7,5.5-11.5,10.9-17.1,16.5c-11.4,11.2-22.9,22.3-34,33.9c-13.8,14.4-17,35.3-8.2,53.2c8.1,16.6,21.6,26.2,40,28.5
		c10.7,1.3,20.5-1.2,29.2-7.6C229.4,332,230.1,331.4,231,330.6z M195.7,276.5c34.7,34.1,69.3,68.3,104.1,102.5
		c15.5-16.4,30.8-32.6,46.2-48.9c-4-3.7-7.8-7.2-11.7-10.7c-11.4,11-22.7,21.9-34,32.8c-30.6-29.8-61-59.4-91.4-89.1
		C203.8,267.2,199.2,271.2,195.7,276.5z M370.2,174.8c2,3.3,3.9,6.5,5.9,9.6c1.4,2.2,3.6,3.2,6.2,3c2.1-0.2,4.1-0.4,6.2-0.7
		c4.7-0.8,9.4-1.2,14,0.1c11.8,3.2,18.8,11.2,22.6,22.5c0.6,1.8,0.8,3.8,0.9,5.7c0.3,7.4-2.5,13.7-6.8,19.5
		c-4.7,6.2-9.9,12-15.4,17.4c-11.6,11.3-23.2,22.4-34.9,33.7c-0.7,0.6-1.3,1.3-2,2c4.8,5,9.4,9.9,13.7,14.4c2.8-2.6,5.6-5,8.1-7.5
		c14.1-14.6,28.2-29.3,42.2-44c2-2.1,3.8-4.3,5.4-6.7c7.6-11,10.7-23.2,8.3-36.4c-3.1-16.7-12.8-28.5-28.1-35.6
		c-9.9-4.6-20.3-6.3-31.1-3.8C380,169,375,171.3,370.2,174.8z M163.5,241.2c1-0.4,1.8-0.7,2.6-1c5.9-2.6,9.3-7,9.4-13.5
		c0.1-3-0.1-6.1-0.4-9.1c-1-8.8,1.1-16.5,7.8-22.6c3.7-3.4,8-5.8,12.7-7.5c10.2-3.7,19.5-2.2,27.9,4.6c2.7,2.2,5.1,4.6,7.6,7
		c15,14.8,29.9,29.6,44.8,44.4c0.4,0.4,0.9,0.8,1.6,1.3c4.4-4.6,8.7-9.1,13.1-13.7c-0.3-0.3-0.7-0.8-1.1-1.2
		c-14.3-14.2-28.6-28.4-42.9-42.5c-5.3-5.3-11.2-9.8-17.6-13.6c-9.2-5.4-19-7.8-29.7-6.5c-16.2,2-28.7,9.9-37.2,23.8
		c-6.9,11.3-8.2,23.7-5.9,36.5C157.1,232.7,159.5,237.3,163.5,241.2z M435.7,264.9c-3,2.4-5.8,4.5-8.5,6.7c-2.5,2-3.6,4.6-3.2,7.9
		c0.1,1.3,0.3,2.5,0.4,3.8c0.5,4.1,0.8,8.1,0.3,12.2c-1.6,14-13.6,25.1-27.7,25.4c-8.2,0.2-15.4-2.6-21.8-7.5c-3.1-2.4-6-5-8.8-7.8
		c-14.1-13.9-28.1-27.8-42.1-41.7c-0.7-0.7-1.4-1.3-2.1-2c-3.5,3.8-6.9,7.5-10.4,11.3c0.4,0.5,0.8,1,1.1,1.4
		c7.9,8.7,15.8,17.5,23.6,26.2c9.1,10.1,18.4,20,28.5,29.1c8.2,7.4,17.9,11.1,28.9,11.1c14.9,0,27.7-5.4,37.8-16.3
		c11.4-12.3,15.8-26.8,11.9-43.4C442.4,275.3,439.7,270,435.7,264.9z M405.9,231.5c-27.1-26.5-54.1-52.9-81.1-79.4
		c-4.8,4.3-9.4,8.4-14.1,12.7c27.2,26.8,54.1,53.4,81.2,80C396.6,240.2,401.2,235.9,405.9,231.5z M265.3,300.6
		c27.7-27,55.2-53.7,82.7-80.5c-4.5-4.8-8.8-9.4-13.2-14c-27.3,27-54.3,53.9-81.5,80.8C257.4,291.5,261.2,295.9,265.3,300.6z"/>
</g>
</svg>
