<?xml version="1.0" standalone="no"?>
<!DOCTYPE svg PUBLIC "-//W3C//DTD SVG 20010904//EN"
 "http://www.w3.org/TR/2001/REC-SVG-20010904/DTD/svg10.dtd">
<svg style="fill:rebeccapurple" version="1.0" xmlns="http://www.w3.org/2000/svg"
 width="100%" height="5%" viewBox="0 0 684.000000 144.000000"
 preserveAspectRatio="xMidYMid meet">

<g transform="translate(-10.000000,160.000000) scale(0.103000,-0.12000)"
stroke="none">
<path d="M170 1295 l-55 -23 1 -64 c1 -133 2 -876 0 -943 l-1 -70 79 -3 78 -3
-7 98 c-4 54 -11 103 -15 108 -5 6 -5 17 0 25 6 8 10 39 10 69 0 53 0 54 87
150 48 53 115 126 150 163 63 66 63 66 63 125 l0 58 -78 77 c-42 42 -85 85
-94 95 -9 10 -47 51 -84 91 -37 39 -70 72 -73 72 -3 -1 -31 -12 -61 -25z m214
-315 c42 -54 43 -56 27 -80 -10 -14 -47 -56 -83 -95 l-66 -69 -5 79 c-7 101
-7 84 -1 199 l6 98 39 -38 c22 -22 59 -64 83 -94z"/>
<path d="M2507 1296 c-10 -14 -17 -32 -17 -39 0 -8 -11 -22 -24 -30 -12 -9
-31 -33 -41 -54 -9 -21 -30 -51 -45 -68 -15 -16 -46 -57 -69 -89 -34 -49 -41
-68 -41 -106 0 -45 2 -48 84 -126 46 -43 107 -100 135 -125 l52 -46 -50 -79
c-55 -86 -66 -100 -78 -105 -7 -4 -40 -49 -105 -148 -10 -14 -18 -29 -18 -34
0 -4 28 -25 61 -46 l62 -39 22 26 c12 15 27 43 35 62 7 19 43 73 79 118 111
141 131 178 131 245 0 54 -3 60 -32 85 -58 48 -179 162 -205 193 l-25 30 28
42 c27 39 74 100 167 215 20 26 36 53 35 61 -4 19 -68 69 -99 76 -20 5 -29 1
-42 -19z"/>
<path d="M4435 1283 c-10 -21 -31 -51 -46 -68 -14 -16 -33 -42 -40 -57 -8 -14
-42 -63 -76 -109 -60 -79 -63 -84 -63 -140 l0 -57 100 -91 c55 -50 104 -91
108 -91 5 0 18 -14 31 -31 l22 -30 -45 -73 c-25 -41 -46 -78 -46 -84 0 -6 -9
-13 -20 -17 -10 -3 -29 -23 -41 -43 -12 -20 -34 -50 -49 -67 -14 -16 -31 -42
-38 -57 -11 -26 -9 -28 51 -66 72 -46 76 -45 117 40 16 32 60 98 98 146 104
130 112 146 112 222 l-1 65 -96 85 c-171 152 -169 148 -114 226 23 33 62 84
87 114 60 72 104 131 104 140 0 14 -77 68 -105 74 -27 6 -32 3 -50 -31z"/>
<path d="M6547 1296 c-10 -14 -17 -32 -17 -39 0 -8 -11 -22 -24 -30 -12 -9
-31 -33 -41 -54 -9 -21 -30 -51 -45 -68 -15 -16 -46 -57 -69 -89 -34 -49 -41
-68 -41 -106 0 -45 2 -48 84 -126 46 -43 107 -100 135 -125 l52 -46 -50 -79
c-55 -86 -66 -100 -78 -105 -7 -4 -40 -49 -105 -148 -10 -14 -18 -29 -18 -34
0 -4 28 -25 61 -46 l62 -39 22 26 c12 15 27 43 35 62 7 19 43 73 79 118 111
141 131 178 131 245 0 54 -3 60 -32 85 -58 48 -179 162 -205 193 l-25 30 28
42 c27 39 74 100 167 215 20 26 36 53 35 61 -4 19 -68 69 -99 76 -20 5 -29 1
-42 -19z"/>
<path d="M770 1300 c-14 -5 -42 -8 -64 -9 l-39 -1 6 -77 c7 -88 9 -834 3 -841
-3 -2 -1 -15 4 -28 6 -14 6 -26 0 -29 -6 -4 -10 -32 -10 -65 l0 -58 179 -1
c104 0 182 3 186 9 3 5 8 39 12 75 l6 66 -111 -7 c-92 -6 -112 -4 -113 7 0 8
-5 86 -10 174 -5 88 -9 167 -10 175 -1 8 4 142 11 298 13 275 13 284 -6 301
-14 13 -26 16 -44 11z"/>
<path d="M1202 1292 l-34 -3 5 -62 c3 -34 5 -136 4 -227 -2 -232 -2 -269 0
-410 1 -69 -1 -172 -5 -230 -4 -58 -6 -119 -4 -136 l3 -31 188 -1 c103 0 193
3 200 7 7 5 13 33 14 72 l2 64 -40 -1 c-22 -1 -68 -5 -102 -9 -111 -14 -109
-16 -115 132 -3 71 -4 152 -1 181 l6 54 92 -7 92 -7 7 57 c10 86 5 89 -107 86
l-95 -3 -4 39 c-3 21 -1 51 4 68 4 16 8 77 8 134 l0 104 115 -7 115 -6 0 74 0
75 -157 -2 c-87 -1 -173 -3 -191 -5z"/>
<path d="M1893 1293 c-28 -4 -33 -9 -39 -41 -3 -20 -12 -67 -20 -104 -7 -37
-11 -74 -8 -83 4 -8 2 -21 -4 -28 -11 -13 -35 -107 -51 -203 -29 -168 -62
-344 -89 -469 l-30 -140 21 -17 c21 -16 113 -35 123 -25 3 2 9 45 15 93 19
174 16 166 84 187 33 10 75 25 94 33 50 22 50 22 72 -194 14 -131 18 -135 109
-104 58 21 65 34 41 87 -5 11 -16 56 -24 100 -63 325 -109 543 -118 558 -5 10
-7 21 -5 26 3 4 -8 68 -24 142 -17 73 -30 143 -30 155 0 33 -25 38 -117 27z
m82 -535 c8 -53 15 -103 15 -111 0 -9 -23 -21 -61 -31 -33 -10 -62 -16 -63
-14 -2 2 5 57 14 123 10 66 16 124 13 128 -3 4 0 13 5 20 5 7 13 35 16 62 15
102 19 104 33 10 7 -49 20 -134 28 -187z"/>
<path d="M2832 1292 l-34 -3 5 -62 c3 -34 5 -136 4 -227 -2 -232 -2 -269 0
-410 1 -69 -1 -172 -5 -230 -4 -58 -6 -119 -4 -136 l3 -31 188 -1 c103 0 193
3 200 7 7 5 13 33 14 72 l2 64 -40 -1 c-22 -1 -68 -5 -102 -9 -111 -14 -109
-16 -115 132 -3 71 -4 152 -1 181 l6 54 92 -7 92 -7 7 57 c10 86 5 89 -107 86
l-95 -3 -4 39 c-3 21 -1 51 4 68 4 16 8 77 8 134 l0 104 115 -7 115 -6 0 74 0
75 -157 -2 c-87 -1 -173 -3 -191 -5z"/>
<path d="M3831 1291 c-34 -6 -35 -7 -48 -81 -8 -41 -15 -96 -17 -121 -1 -25
-6 -51 -10 -58 -14 -22 -53 -209 -76 -361 -12 -80 -24 -152 -27 -160 -3 -8
-19 -76 -35 -150 -28 -135 -28 -135 -8 -152 18 -15 116 -35 125 -26 3 2 7 31
10 64 4 32 11 89 17 127 11 75 24 88 105 102 22 3 49 13 60 20 38 29 51 11 59
-85 13 -142 25 -214 36 -222 18 -11 36 -9 93 11 43 16 50 21 46 42 -1 13 -8
33 -14 44 -6 11 -12 38 -14 60 -2 22 -15 83 -28 135 -13 52 -38 172 -55 265
-17 94 -35 178 -40 187 -6 10 -10 31 -10 46 0 16 -11 80 -25 142 -14 62 -25
125 -25 140 0 40 -30 47 -119 31z m59 -378 c7 -60 19 -142 26 -183 8 -41 14
-80 14 -86 0 -9 -101 -44 -126 -44 -4 0 -3 15 0 33 4 17 14 79 21 137 24 175
37 250 45 250 4 0 13 -48 20 -107z"/>
<path d="M4754 1293 c-21 -4 -21 -8 -17 -176 2 -95 8 -208 13 -252 9 -70 6
-254 -7 -577 l-4 -98 82 0 82 0 -7 68 c-10 106 -20 422 -13 422 8 0 102 -181
103 -200 3 -36 123 -295 138 -298 19 -4 126 55 126 69 0 14 -30 71 -48 92 -8
9 -12 17 -8 17 3 0 -11 33 -33 73 -22 39 -67 134 -100 210 l-60 138 69 137
c38 75 93 177 121 225 50 84 51 88 33 103 -21 17 -100 54 -115 54 -15 0 -59
-107 -52 -125 3 -10 -5 -27 -20 -43 -14 -15 -39 -62 -56 -105 -17 -43 -47
-108 -66 -145 l-36 -67 7 236 6 236 -24 6 c-24 7 -79 7 -114 0z"/>
<path d="M5685 1266 c-4 -19 -4 -209 0 -423 4 -213 6 -395 5 -403 0 -8 -3 -52
-6 -96 l-5 -81 43 -35 c32 -26 56 -37 93 -41 45 -5 59 -1 125 34 41 21 78 39
82 39 4 0 11 -18 14 -40 7 -45 4 -44 91 -29 60 11 64 13 59 34 -29 117 -38
922 -10 966 2 4 1 28 -2 53 l-7 46 -75 0 -75 0 8 -414 c4 -227 4 -427 0 -444
-6 -27 -16 -35 -92 -67 -70 -29 -89 -33 -99 -23 -15 15 -20 148 -17 463 2 269
1 252 9 376 l6 106 -53 6 c-86 11 -87 10 -94 -27z"/>
</g>
</svg>
