<?xml version="1.0" encoding="utf-8"?>
<!-- Generator: Adobe Illustrator 21.0.0, SVG Export Plug-In . SVG Version: 6.00 Build 0)  -->
<svg version="1.1" id="Layer_1" xmlns="http://www.w3.org/2000/svg" xmlns:xlink="http://www.w3.org/1999/xlink" x="0px" y="0px"
	 viewBox="0 0 600 600" style="fill:#2e2649;enable-background:new 0 0 600 600;" xml:space="preserve">
<g>
	<path d="M269.4,358.6c-5.5-6.8-11-14.3-18.7-19.9c-2-1.4-3.3-1.4-5.3,0.2c-16.4,12.6-34.2,22.4-55,25c-26.9,3.3-50.9-3.1-69.6-24
		c-10.5-11.7-11.9-25.9-10.2-40.7c3-26.4,25.4-44.4,48.7-50c22.3-5.3,44-1.7,64.8,7.1c8.3,3.5,16.1,8.4,24.1,12.8
		c2,1.1,3.4,1.4,5.1-0.3c5.4-5.4,10.7-10.8,16.1-16.2c2.2-2.2,2.1-4.5,0.7-7.2c-5.2-9.3-10.4-18.6-15.4-28.1
		c-13.7-25.9-22-53.4-22.1-82.9c0-19.4,4.1-37.8,14.4-54.5c13.9-22.6,41.5-34.5,67.5-29.6c23.3,4.4,37.9,18.6,46.5,40.1
		c12.1,30.3,10.8,60.7,1.7,91.3c-6.7,22.5-17.3,43.2-30.4,62.6c-0.3,0.5-0.6,1-1,1.6c6.4,9.3,13.5,17.8,22.3,24.9
		c2.1,1.7,3.6,1.4,5.4-0.1c14.7-12.2,32.1-18.4,50.5-21.6c17.5-3.1,34.8-2.6,51.6,4.2c14,5.7,24.8,14.5,27.9,30.1
		c3.8,19.1-1.7,35.6-15.7,49.1c-10.7,10.3-23.5,16.9-38.2,19.1c-12.1,1.8-24.2,0.3-36.2-2.3c-14.5-3.1-28.1-8.5-40.7-16.3
		c-2.2-1.4-3.9-1.5-5.6,0.4c-6.8,7.2-13.7,14.4-20.4,21.8c-0.6,0.7-0.7,2.6-0.2,3.6c3,5.7,6,11.4,9.4,16.8
		c17.4,27.8,26.8,57.8,25.6,90.7c-0.9,25.4-9.2,47.9-26.9,66.7c-21.5,22.8-54.8,24.1-79.1,2.6c-16-14.2-24.7-32.3-28.6-53.1
		c-5.9-31.7,1-61,16-88.8C255,381.9,262.2,370.6,269.4,358.6z M282.2,235.4c3.9-5,7.6-9.6,11.1-14.4c2.3-3.1,2.6-6.4,1.1-10.2
		c-7.2-18.5-14.2-37.2-17.6-56.9c-3.2-18.7-2-36.7,5.2-54.6c5.3-13.3,25.8-18.5,36.8-8.6c5.4,4.8,9.9,10.2,11.2,17.4
		c1.4,8.1,3.2,16.3,3.3,24.4c0.4,26.4-8.8,50.2-21.2,72.9c-3.6,6.5-3.7,9.3,0.7,15.3c1.2,1.7,2.7,3.1,4,4.7c2.1,2.5,4.2,5,6,7.7
		c2.3,3.4,2.5,3.6,4.9,0.2c11.2-15.9,19.6-33.2,24.9-51.9c7.3-25.6,9.1-51.3,1-77.1C345.7,78.9,331,61,302.3,59
		c-19.4-1.3-37.7,5.9-47.6,25.5c-8.7,17.2-10.3,35.5-8.4,54.3c2.5,24.3,8.6,47.7,20,69.5C271.1,217.4,275,227,282.2,235.4z
		 M276.2,365.6c-0.8,1.3-1,1.6-1.2,1.9c-12.1,18.3-22.9,37.2-28.7,58.6c-7.5,27.4-6.9,54.3,7.1,79.8c7.9,14.4,18.7,25.5,34.8,30.9
		c23.2,7.8,43.3-4.6,52.3-18c11.3-16.8,14.7-36.4,14.4-56.3c-0.3-20.3-4.5-40.1-13.1-58.6c-5.2-11.3-11.8-21.9-17.9-32.9
		c-0.9-1.6-2.3-3.4-4.1-1.1c-3.8,4.7-7.4,9.6-11,14.4c-1.4,1.9-1.1,3.7,0.1,5.7c3.2,5.6,6.3,11.2,9.2,17c10.8,21.5,16,44.2,13,68.3
		c-1.5,11.9-6.2,22.2-14.9,30.8c-7.2,7.2-21.8,7.3-29-0.2c-5.3-5.6-9.5-11.6-11.7-19c-5.3-17.8-4.4-35.8,0.4-53.2
		c3.4-12.4,9.4-24.2,15.1-35.7c3.5-7,4.4-12.4-1.9-18.1C284.5,375.8,280.8,370.8,276.2,365.6z M240.5,280.1
		c-1.3-0.9-2.4-1.9-3.6-2.6c-7.6-4-15-8.5-23-11.8c-17.8-7.5-36.3-10.7-55.5-6.5c-9.8,2.1-18.8,6.3-26.1,13.1
		c-9.8,9.2-11.8,21.4-11.6,34.1c0.1,4.6,0.6,9.6,2.4,13.8c5.3,11.8,14.5,20,26.2,25.1c17.2,7.5,35.2,7.3,53.3,3.9
		c12.5-2.4,23.6-7.9,33.2-16.4c1.8-1.6,3.2-3.2,0.8-5.4c-5.3-4.7-10.6-9.2-15.9-13.9c-2-1.8-3.7-1.6-6.2-0.3
		c-8.5,4.3-16.1,10.4-25.9,12.2c-9.4,1.7-18.6,3.6-28.1,0.8c-12.3-3.7-19.4-17.1-14.5-27.7c3.3-7.1,8.9-12,16.5-14.3
		c12-3.7,23.3-1.5,34.2,3.8c6.1,2.9,12.4,5.6,18.4,8.7c4.1,2.1,7.3,1.6,10.8-1.3C231.6,290.8,237.1,286.7,240.5,280.1z M367.6,322
		c3.6,2,6.9,4.1,10.4,5.7c19.6,8.8,39.9,14.7,61.7,11.1c18-3,31.4-12.2,37.3-30.1c4.5-13.7,2.3-26-8.8-36.2
		c-9.8-9-21.5-13.5-34.6-14.6c-23.2-1.9-44.4,4.7-64.5,15.7c-1.2,0.7-2.2,1.8-3.3,2.8c-1.9,1.7-1.6,3.1,0.3,4.7
		c4.5,3.7,8.9,7.5,13.1,11.6c3,2.9,5.4,2.7,8.6,0.5c7.6-5.1,15.6-9.4,24.5-11.7c11-2.8,21.9-2.8,32.1,3.1c7,4.1,10.2,10.2,8.8,16.9
		c-1.3,6.4-4.8,11.7-10.1,15.5c-9.6,6.9-20.3,7.2-31,3.8c-9.7-3.1-18.9-7.6-28.3-11.3c-1.2-0.5-3-1.1-3.6-0.6
		C375.9,312.7,370.2,315.4,367.6,322z M301.1,397.3c-1.3,2.1-2.2,3.2-2.7,4.4c-3.8,9.1-7.8,18.2-11.3,27.5
		c-5.1,13.7-7.6,27.8-5.6,42.4c1.4,10.8,5.2,20.4,13.8,27.6c5.7,4.8,9.1,4.8,14.7-0.1c1.3-1.2,2.4-2.7,3.2-4.3
		c5.6-10.6,8-22.1,8.1-34c0.1-17.7-4.3-34.3-12.2-50.1C306.9,406.3,304.1,402.3,301.1,397.3z M303.9,203.3c0.7-1.3,1.3-2.1,1.8-3.1
		c3.2-7,6.8-13.8,9.3-20.9c8.2-23.1,13.6-46.4,3.8-70.5c-1.6-4.1-3.5-7.6-6.9-10.5c-8.5-7.4-18-5.1-22,5.4
		c-4.7,12.4-5.8,25.2-4.5,38.3c2.1,20.8,9.4,40.1,17.1,59.3C302.8,201.9,303.3,202.4,303.9,203.3z M210,305.9
		c-10-5.5-18.9-11-29.6-12.6c-6.6-0.9-13-1.1-19.1,2.2c-7.3,3.9-8.6,12.5-2.4,18.1c2,1.8,4.7,3.2,7.2,3.9
		C182.5,322.1,196,315,210,305.9z M424.7,313.1c1.6-0.3,3.8-0.4,5.9-1c6.3-1.6,10.7-6.7,11-13.2c0.1-1.6-0.9-3.8-2.1-5
		c-3.8-3.6-8.7-5.2-13.9-5.5c-11.9-0.5-22.2,4.1-32,10.2c-2.4,1.5-1.2,2.9,0.4,3.9c2.1,1.3,4.5,2.3,6.7,3.6
		C407.9,310.3,415.8,312.6,424.7,313.1z M309.3,327.8c5.5,7.1,10.4,13.7,15.5,20.2c1.5,1.9,3.1,1.3,4.6-0.3
		c5.7-5.9,11.4-11.9,17.2-17.7c1.5-1.5,1.7-2.7-0.2-4.1c-6-4.6-11.8-9.3-17.8-13.7c-1-0.7-3.8-0.7-4.6,0.1
		C318.9,317.2,314.2,322.5,309.3,327.8z M293,331.2c-3.6-4.5-6.5-8.5-9.7-12.3c-2-2.3-4.5-4.4-7.1-6.1c-0.8-0.6-3.1-0.2-4,0.6
		c-5.1,5-10,10.3-15,15.4c-1.2,1.3-1.5,2.3-0.1,3.7c4,3.9,7.7,8.1,11.8,11.9c2.3,2.1,5.2,3.7,7.9,5.6
		C282.7,343.3,288,337.1,293,331.2z M266.4,302.2c-4.7-4.2-10.2-9.2-15.8-14.2c-1.7-1.5-3.1-1.2-4.7,0.3c-3.1,2.9-6.4,5.6-9.5,8.5
		c-2.9,2.8-5.7,5.7-8.3,8.3c1.4,1.6,2.3,2.8,3.4,3.8c4.7,3.9,9.5,7.9,14.4,11.6c0.8,0.6,3.3,0.4,4-0.3
		C255.3,314.6,260.5,308.8,266.4,302.2z M346.9,279.4c-7.3-8-13.7-15.1-20.2-22.1c-0.7-0.8-3.1-1.3-3.4-0.9
		c-4.2,5.4-8.3,11-12.2,16.7c-0.4,0.6-0.3,2.3,0.3,2.8c6,6.1,12.2,12,18.6,18.3C335.9,289,341.3,284.3,346.9,279.4z M301.8,379.7
		c4.7-6,9.1-11.5,13.3-17.3c0.6-0.9,0.5-3.1-0.2-4.1c-4.1-5.8-8.4-11.3-12.6-17c-1.9-2.5-3.6-2.4-5.5,0c-3.4,4.3-6.8,8.5-10.3,12.7
		c-3.4,4.2-3.4,4.2,0,8.1C291.4,367.8,296.4,373.5,301.8,379.7z M302.1,224.8c-1.8,1.8-3.5,3.1-4.8,4.8c-2.6,3.3-4.7,7.2-7.6,10.2
		c-2.3,2.4-2.4,4.6-1.3,7.2c0.8,1.8,1.8,3.5,2.9,5c3.2,4.1,6.6,8,9.8,12.1c1.3,1.6,2.4,1.5,3.5,0.1c4-5.1,8-10.3,11.9-15.6
		c0.4-0.6,0.4-2,0-2.6C312,239,307.2,232.2,302.1,224.8z M278.1,292.9c5.4-5.7,10-10.6,14.9-15.7c-4.6-6.4-9.1-12.7-13.7-18.9
		c-0.8-1.1-2.2-2.4-3.9-0.6c-5,5.3-10.2,10.4-15.1,15.7c-0.6,0.7-0.8,2.8-0.3,3.3C265.8,282.2,271.8,287.4,278.1,292.9z
		 M337.4,300.8c2.3,2.1,4.4,4.2,6.6,6c3,2.4,6.2,4.6,9.2,7.1c4.2,3.5,6.7,3.6,10.6-0.3c2.8-2.7,5.2-5.7,8.1-8.2
		c2.1-1.9,1.8-3-0.2-4.5c-5.1-4.1-10-8.4-15.1-12.5c-0.9-0.7-3-1-4-0.5C346.6,290.6,341.8,294.9,337.4,300.8z M318.4,303.6
		c-4-4.4-7.6-8.5-11.4-12.3c-1.6-1.6-3.4-3.1-5.4-4.3c-0.7-0.4-2.4-0.4-3,0.2c-3.8,3.4-7.5,6.9-10.9,10.6c-0.8,0.9-1.3,3.4-0.6,4.1
		c5.4,6.2,11,12.1,16.8,18.3C308.8,314.4,313.6,309,318.4,303.6z M301.1,397.3c3,5,5.8,9.1,8,13.5c7.9,15.7,12.3,32.4,12.2,50.1
		c-0.1,11.9-2.5,23.4-8.1,34c-0.8,1.6-1.9,3.1-3.2,4.3c-5.6,4.9-9,4.9-14.7,0.1c-8.6-7.2-12.4-16.8-13.8-27.6
		c-1.9-14.7,0.5-28.8,5.6-42.4c3.5-9.3,7.5-18.4,11.3-27.5C298.9,400.4,299.7,399.4,301.1,397.3z M305.7,200.3
		c3.2-7,6.8-13.8,9.3-20.9c8.2-23.1,13.6-46.4,3.8-70.5c-1.6-4.1-3.5-7.6-6.9-10.5c-8.5-7.4-18-5.1-22,5.4
		c-4.7,12.4-5.8,25.2-4.5,38.3c2.1,20.8,9.4,40.1,17.1,59.3c0.2,0.6,0.7,1.1,1.4,2C304.7,202.1,305.3,201.2,305.7,200.3z
		 M180.4,293.4c-6.6-0.9-13-1.1-19.1,2.2c-7.3,3.9-8.6,12.5-2.4,18.1c2,1.8,4.7,3.2,7.2,3.9c16.5,4.6,30-2.5,44-11.6
		C200,300.4,191.1,294.9,180.4,293.4z M430.6,312.2c6.3-1.6,10.7-6.7,11-13.2c0.1-1.6-0.9-3.8-2.1-5c-3.8-3.6-8.7-5.2-13.9-5.5
		c-11.9-0.5-22.2,4.1-32,10.2c-2.4,1.5-1.2,2.9,0.4,3.9c2.1,1.3,4.5,2.3,6.7,3.6c7.3,4.2,15.1,6.5,24,7
		C426.3,312.9,428.5,312.7,430.6,312.2z"/>
</g>
</svg>
